{"title":"Catherine.Cooksons.The.Round.Tower.1998.DVDRip.x264.Iou1","uid":11661093,"size":1464135258,"categoryP":"video","categoryS":"movies","magnet":"?xt=urn:btih:c0f34ecbb65e120ee521cf386afe49eeae5ae984&amp;dn=Catherine.Cooksons.The.Round.Tower.1998.DVDRip.x264.Iou1&amp;tr=udp%3A%2F%2Ftracker.openbittorrent.com%3A80&amp;tr=udp%3A%2F%2Fopen.demonii.com%3A1337&amp;tr=udp%3A%2F%2Ftracker.coppersurfer.tk%3A6969&amp;tr=udp%3A%2F%2Fexodus.desync.com%3A6969","seeders":1,"leechers":0,"uploader":"jaybee211","files":-1,"time":1417999881,"description":"Catherine.Cooksons.The.Round.Tower.1998.DVDRip.x264.Iou1\n\nGenre                                    : Romance\nFormat                                   : MPEG-4\nFormat profile                           : Base Media / Version 2\nCodec ID                                 : mp42\nFile size                                : 1.36 GiB\nDuration                                 : 2h 28mn\nOverall bit rate mode                    : Variable\nOverall bit rate                         : 1 318 Kbps\n\nVideo\nID                                       : 1\nFormat                                   : AVC\nFormat/Info                              : Advanced Video Codec\nFormat profile                           : &lt;a class=&quot;__cf_email__&quot; href=&quot;/cdn-cgi/l/email-protection&quot; data-cfemail=&quot;d59dbcb2bd9599e6fbe5&quot;&gt;[email&amp;#160;protected]&lt;/a&gt;&lt;script cf-hash='f9e31' type=&quot;text/javascript&quot;&gt;\n/* &lt;![CDATA[ */!function(){try{var t=&quot;currentScript&quot;in document?document.currentScript:function(){for(var t=document.getElementsByTagName(&quot;script&quot;),e=t.length;e--;)if(t[e].getAttribute(&quot;cf-hash&quot;))return t[e]}();if(t&amp;&amp;t.previousSibling){var e,r,n,i,c=t.previousSibling,a=c.getAttribute(&quot;data-cfemail&quot;);if(a){for(e=&quot;&quot;,r=parseInt(a.substr(0,2),16),n=2;a.length-n;n+=2)i=parseInt(a.substr(n,2),16)^r,e+=String.fromCharCode(i);e=document.createTextNode(e),c.parentNode.replaceChild(e,c)}}}catch(u){}}();/* ]]&gt; */&lt;/script&gt;\nFormat settings, CABAC                   : Yes\nFormat settings, ReFrames                : 4 frames\nCodec ID                                 : avc1\nCodec ID/Info                            : Advanced Video Coding\nDuration                                 : 2h 28mn\nBit rate                                 : 1 212 Kbps\nMaximum bit rate                         : 3 626 Kbps\nWidth                                    : 720 pixels\nHeight                                   : 500 pixels\nDisplay aspect ratio                     : 16:10\nFrame rate mode                          : Constant\nFrame rate                               : 25.000 fps\nStandard                                 : PAL\nColor space                              : YUV\nChroma subsampling                       : 4:2:0\nBit depth                                : 8 bits\nScan type                                : Progressive\nBits/(Pixel*Frame)                       : 0.135\nStream size                              : 1.25 GiB (92%)\n\nAudio\nID                                       : 2\nFormat                                   : AAC\nFormat/Info                              : Advanced Audio Codec\nFormat profile                           : LC\nCodec ID                                 : 40\nDuration                                 : 2h 28mn\nBit rate mode                            : Variable\nBit rate                                 : 93.7 Kbps\nMaximum bit rate                         : 102 Kbps\nChannel(s)                               : 2 channels\nChannel positions                        : Front: L R\nSampling rate                            : 48.0 KHz\nCompression mode                         : Lossy\nStream size                              : 99.3 MiB (7%)\nLanguage                                 : English\nSubtitles                                : English\nHardcoded                                : No\n\nScreens. &lt;a href=&quot; http://bayimg.com/NAimNaAgg&quot; rel=&quot;nofollow&quot; target=&quot;_NEW&quot;&gt; http://bayimg.com/NAimNaAgg&lt;/a&gt;\n\nIMDB. &lt;a href=&quot; http://www.imdb.com/title/tt0154085/&quot; rel=&quot;nofollow&quot; target=&quot;_NEW&quot;&gt; http://www.imdb.com/title/tt0154085/&lt;/a&gt;\n\nStoryline.\nSet in mid-1950's England, this story tells of the wealthy, socially upwardly-progressive Ratcliffe family. Their youngest daughter, seventeen year old Vanessa, feels alienated from her selfish parents, who are more interested in their eldest daughter's upcoming marriage into one of their town's old families. An old friend of the family, who is himself trapped in a loveless marriage, makes love to Vanessa one night, and she becomes pregnant, but won't reveal who the father is. Her parents are sure it is an employee of the Ratcliffe's, Angus Cotton, who hotly denies this and quits his job to go and start his own business. Vanessa ends up leaving home, and when Angus hears of the poor conditions she's living in in a Newcastle skid-row neighbourhood, he offers to marry her and she accepts.\n\nEnjoy","torrent":{"xt":"urn:btih:c0f34ecbb65e120ee521cf386afe49eeae5ae984","amp;dn":"Catherine.Cooksons.The.Round.Tower.1998.DVDRip.x264.Iou1","amp;tr":["udp%3A%2F%2Ftracker.openbittorrent.com%3A80","udp%3A%2F%2Fopen.demonii.com%3A1337","udp%3A%2F%2Ftracker.coppersurfer.tk%3A6969","udp%3A%2F%2Fexodus.desync.com%3A6969"],"infoHash":"c0f34ecbb65e120ee521cf386afe49eeae5ae984","infoHashBuffer":{"type":"Buffer","data":[192,243,78,203,182,94,18,14,229,33,207,56,106,254,73,238,174,90,233,132]},"announce":[],"urlList":[]}}